<svg width="750" height="600" version="1.1" xmlns="http://www.w3.org/2000/svg" style="width: 921px; height: 600px;"><g transform="translate(100,100) scale(0.8)"><path class="link" d="M533.0376344086021,464.2857142857142L533.0376344086021,446.4285714285714L568.5215053763441,446.4285714285714" id="node_3756:node_1486" style="fill: none; stroke-width: 3; stroke: grey; cursor: pointer;"></path><path class="link" d="M533.0376344086021,464.2857142857142L533.0376344086021,482.1428571428571L570,482.1428571428571" id="node_3756:node_1373" style="fill: none; stroke-width: 3; stroke: grey; cursor: pointer;"></path><path class="link" d="M368.92473118279565,392.8571428571429L368.92473118279565,375L404.4086021505376,375" id="node_4938:node_7086" style="fill: none; stroke-width: 3; stroke: grey; cursor: pointer;"></path><path class="link" d="M368.92473118279565,392.8571428571429L368.92473118279565,410.7142857142857L405.8870967741935,410.7142857142857" id="node_4938:node_3898" style="fill: none; stroke-width: 3; stroke: grey; cursor: pointer;"></path><path class="link" d="M367.4462365591398,366.07142857142856L367.4462365591398,339.2857142857143L401.4516129032258,339.2857142857143" id="node_8861:node_3556" style="fill: none; stroke-width: 3; stroke: grey; cursor: pointer;"></path><path class="link" d="M367.4462365591398,366.07142857142856L367.4462365591398,392.8571428571429L368.92473118279565,392.8571428571429" id="node_8861:node_4938" style="fill: none; stroke-width: 3; stroke: grey; cursor: pointer;"></path><path class="link" d="M275.7795698924731,415.1785714285714L275.7795698924731,366.07142857142856L367.4462365591398,366.07142857142856" id="node_9187:node_8861" style="fill: none; stroke-width: 3; stroke: grey; cursor: pointer;"></path><path class="link" d="M275.7795698924731,415.1785714285714L275.7795698924731,464.2857142857142L533.0376344086021,464.2857142857142" id="node_9187:node_3756" style="fill: none; stroke-width: 3; stroke: grey; cursor: pointer;"></path><path class="link" d="M252.1236559139785,214.28571428571428L252.1236559139785,196.42857142857142L252.1236559139785,196.42857142857142" id="node_6987:node_6826" style="fill: none; stroke-width: 3; stroke: grey; cursor: pointer;"></path><path class="link" d="M252.1236559139785,214.28571428571428L252.1236559139785,232.14285714285714L287.60752688172045,232.14285714285714" id="node_6987:node_4768" style="fill: none; stroke-width: 3; stroke: grey; cursor: pointer;"></path><path class="link" d="M252.1236559139785,241.07142857142856L252.1236559139785,214.28571428571428L252.1236559139785,214.28571428571428" id="node_1283:node_6987" style="fill: none; stroke-width: 3; stroke: grey; cursor: pointer;"></path><path class="link" d="M252.1236559139785,241.07142857142856L252.1236559139785,267.85714285714283L252.1236559139785,267.85714285714283" id="node_1283:node_3483" style="fill: none; stroke-width: 3; stroke: grey; cursor: pointer;"></path><path class="link" d="M234.3817204301075,142.85714285714286L234.3817204301075,125L271.34408602150535,125" id="node_2157:node_2726" style="fill: none; stroke-width: 3; stroke: grey; cursor: pointer;"></path><path class="link" d="M234.3817204301075,142.85714285714286L234.3817204301075,160.71428571428572L269.86559139784947,160.71428571428572" id="node_2157:node_7389" style="fill: none; stroke-width: 3; stroke: grey; cursor: pointer;"></path><path class="link" d="M225.510752688172,191.96428571428572L225.510752688172,142.85714285714286L234.3817204301075,142.85714285714286" id="node_1703:node_2157" style="fill: none; stroke-width: 3; stroke: grey; cursor: pointer;"></path><path class="link" d="M225.510752688172,191.96428571428572L225.510752688172,241.07142857142856L252.1236559139785,241.07142857142856" id="node_1703:node_1283" style="fill: none; stroke-width: 3; stroke: grey; cursor: pointer;"></path><path class="link" d="M198.89784946236557,247.76785714285714L198.89784946236557,191.96428571428572L225.510752688172,191.96428571428572" id="node_5759:node_1703" style="fill: none; stroke-width: 3; stroke: grey; cursor: pointer;"></path><path class="link" d="M198.89784946236557,247.76785714285714L198.89784946236557,303.57142857142856L283.17204301075265,303.57142857142856" id="node_5759:node_2485" style="fill: none; stroke-width: 3; stroke: grey; cursor: pointer;"></path><path class="link" d="M173.76344086021504,331.4732142857143L173.76344086021504,247.76785714285714L198.89784946236557,247.76785714285714" id="node_7628:node_5759" style="fill: none; stroke-width: 3; stroke: grey; cursor: pointer;"></path><path class="link" d="M173.76344086021504,331.4732142857143L173.76344086021504,415.1785714285714L275.7795698924731,415.1785714285714" id="node_7628:node_9187" style="fill: none; stroke-width: 3; stroke: grey; cursor: pointer;"></path><path class="link" d="M153.06451612903223,210.37946428571428L153.06451612903223,89.28571428571429L156.02150537634407,89.28571428571429" id="node_3481:node_9081" style="fill: none; stroke-width: 3; stroke: grey; cursor: pointer;"></path><path class="link" d="M153.06451612903223,210.37946428571428L153.06451612903223,331.4732142857143L173.76344086021504,331.4732142857143" id="node_3481:node_7628" style="fill: none; stroke-width: 3; stroke: grey; cursor: pointer;"></path><path class="link" d="M250.64516129032265,35.71428571428571L250.64516129032265,17.857142857142858L250.64516129032265,17.857142857142858" id="node_8025:node_5173" style="fill: none; stroke-width: 3; stroke: grey; cursor: pointer;"></path><path class="link" d="M250.64516129032265,35.71428571428571L250.64516129032265,53.57142857142857L287.60752688172045,53.57142857142857" id="node_8025:node_5664" style="fill: none; stroke-width: 3; stroke: grey; cursor: pointer;"></path><path class="link" d="M20,123.04687499999999L20,35.71428571428571L250.64516129032265,35.71428571428571" id="node_3734:node_8025" style="fill: none; stroke-width: 3; stroke: grey; cursor: pointer;"></path><path class="link" d="M20,123.04687499999999L20,210.37946428571428L153.06451612903223,210.37946428571428" id="node_3734:node_3481" style="fill: none; stroke-width: 3; stroke: grey; cursor: pointer;"></path><g class="node" transform="translate(570,482.1428527832031)" id="node_1373" style="cursor: crosshair;"><circle class="node" r="4" style="fill: black;"></circle><rect class="node" y="-4px" x="-4px" width="0px" height="0px" style="stroke-width: 2px; stroke: black;"></rect><text x="13" dy=".3em" dx="-.3em" text-anchor="start" font-size="14px" style="fill-opacity: 1; font-family: sans-serif; font-weight: normal; fill: black;">13_NUF04530_1__subtilisin__Bacillus_rugosus</text><text class="triangleText" dy=".35em" font-size="14px" style="fill-opacity: 1e-06; font-family: sans-serif;"></text><path d="M0,0L0,0L0,0L0,0"></path></g><g class="node" transform="translate(568.521484375,446.4285583496094)" id="node_1486" style="cursor: crosshair;"><circle class="node" r="4" style="fill: black;"></circle><rect class="node" y="-4px" x="-4px" width="0px" height="0px" style="stroke-width: 2px; stroke: black;"></rect><text x="13" dy=".3em" dx="-.3em" text-anchor="start" font-size="14px" style="fill-opacity: 1; font-family: sans-serif; font-weight: normal; fill: black;">12_WP_248602588_1_subtilisin__Bacillus_rugosus</text><text class="triangleText" dy=".35em" font-size="14px" style="fill-opacity: 1e-06; font-family: sans-serif;"></text><path d="M0,0L0,0L0,0L0,0"></path></g><g class="node" transform="translate(533.0376586914062,464.28570556640625)" id="node_3756" style="cursor: crosshair;"><circle class="node" r="4" style="fill: black;"></circle><rect class="node" y="-4px" x="-4px" width="0px" height="0px" style="stroke-width: 2px; stroke: black;"></rect><text x="-13" dy="-.3em" dx=".3em" text-anchor="end" font-size="14px" style="fill-opacity: 1; font-family: sans-serif; font-weight: normal;"></text><text class="triangleText" dy=".35em" font-size="14px" style="fill-opacity: 1e-06; font-family: sans-serif;" x="0"></text><path d="M0,0L0,0L0,0L0,0"></path></g><g class="node" transform="translate(405.8870849609375,410.71429443359375)" id="node_3898" style="cursor: crosshair;"><circle class="node" r="4" style="fill: black;"></circle><rect class="node" y="-4px" x="-4px" width="0px" height="0px" style="stroke-width: 2px; stroke: black;"></rect><text x="13" dy=".3em" dx="-.3em" text-anchor="start" font-size="14px" style="fill-opacity: 1; font-family: sans-serif; font-weight: normal; fill: black;">10_WP_129506185_1_subtilisin__Bacillus_cabrialesii</text><text class="triangleText" dy=".35em" font-size="14px" style="fill-opacity: 1e-06; font-family: sans-serif;"></text><path d="M0,0L0,0L0,0L0,0"></path></g><g class="node" transform="translate(404.4085998535156,375)" id="node_7086" style="cursor: crosshair;"><circle class="node" r="4" style="fill: black;"></circle><rect class="node" y="-4px" x="-4px" width="0px" height="0px" style="stroke-width: 2px; stroke: black;"></rect><text x="13" dy=".3em" dx="-.3em" text-anchor="start" font-size="14px" style="fill-opacity: 1; font-family: sans-serif; font-weight: normal; fill: black;">9_WP_268398167_1_subtilisin__Bacillus_inaquosorum</text><text class="triangleText" dy=".35em" font-size="14px" style="fill-opacity: 1e-06; font-family: sans-serif;"></text><path d="M0,0L0,0L0,0L0,0"></path></g><g class="node" transform="translate(368.92474365234375,392.8571472167969)" id="node_4938" style="cursor: crosshair;"><circle class="node" r="4" style="fill: black;"></circle><rect class="node" y="-4px" x="-4px" width="0px" height="0px" style="stroke-width: 2px; stroke: black;"></rect><text x="-13" dy="-.3em" dx=".3em" text-anchor="end" font-size="14px" style="fill-opacity: 1; font-family: sans-serif; font-weight: normal;"></text><text class="triangleText" dy=".35em" font-size="14px" style="fill-opacity: 1e-06; font-family: sans-serif;" x="0"></text><path d="M0,0L0,0L0,0L0,0"></path></g><g class="node" transform="translate(401.45159912109375,339.28570556640625)" id="node_3556" style="cursor: crosshair;"><circle class="node" r="4" style="fill: black;"></circle><rect class="node" y="-4px" x="-4px" width="0px" height="0px" style="stroke-width: 2px; stroke: black;"></rect><text x="13" dy=".3em" dx="-.3em" text-anchor="start" font-size="14px" style="fill-opacity: 1; font-family: sans-serif; font-weight: normal; fill: black;">8_WP_268283787_1_subtilisin__Bacillus_inaquosorum</text><text class="triangleText" dy=".35em" font-size="14px" style="fill-opacity: 1e-06; font-family: sans-serif;"></text><path d="M0,0L0,0L0,0L0,0"></path></g><g class="node" transform="translate(367.44622802734375,366.0714416503906)" id="node_8861" style="cursor: crosshair;"><circle class="node" r="4" style="fill: black;"></circle><rect class="node" y="-4px" x="-4px" width="0px" height="0px" style="stroke-width: 2px; stroke: black;"></rect><text x="-13" dy="-.3em" dx=".3em" text-anchor="end" font-size="14px" style="fill-opacity: 1; font-family: sans-serif; font-weight: normal;"></text><text class="triangleText" dy=".35em" font-size="14px" style="fill-opacity: 1e-06; font-family: sans-serif;" x="0"></text><path d="M0,0L0,0L0,0L0,0"></path></g><g class="node" transform="translate(275.7795715332031,415.1785583496094)" id="node_9187" style="cursor: crosshair;"><circle class="node" r="4" style="fill: black;"></circle><rect class="node" y="-4px" x="-4px" width="0px" height="0px" style="stroke-width: 2px; stroke: black;"></rect><text x="-13" dy="-.3em" dx=".3em" text-anchor="end" font-size="14px" style="fill-opacity: 1; font-family: sans-serif; font-weight: normal;"></text><text class="triangleText" dy=".35em" font-size="14px" style="fill-opacity: 1e-06; font-family: sans-serif;" x="0"></text><path d="M0,0L0,0L0,0L0,0"></path></g><g class="node" transform="translate(283.17205810546875,303.5714416503906)" id="node_2485" style="cursor: crosshair;"><circle class="node" r="4" style="fill: black;"></circle><rect class="node" y="-4px" x="-4px" width="0px" height="0px" style="stroke-width: 2px; stroke: black;"></rect><text x="13" dy=".3em" dx="-.3em" text-anchor="start" font-size="14px" style="fill-opacity: 1; font-family: sans-serif; font-weight: normal; fill: black;">7_ALU11319_1_serine_protease__Bacillus_subtilis</text><text class="triangleText" dy=".35em" font-size="14px" style="fill-opacity: 1e-06; font-family: sans-serif;"></text><path d="M0,0L0,0L0,0L0,0"></path></g><g class="node" transform="translate(252.1236572265625,267.8571472167969)" id="node_3483" style="cursor: crosshair;"><circle class="node" r="4" style="fill: black;"></circle><rect class="node" y="-4px" x="-4px" width="0px" height="0px" style="stroke-width: 2px; stroke: black;"></rect><text x="13" dy=".3em" dx="-.3em" text-anchor="start" font-size="14px" style="fill-opacity: 1; font-family: sans-serif; font-weight: normal; fill: black;">2_WP_015715621_1_subtilisin__Bacillus</text><text class="triangleText" dy=".35em" font-size="14px" style="fill-opacity: 1e-06; font-family: sans-serif;"></text><path d="M0,0L0,0L0,0L0,0"></path></g><g class="node" transform="translate(287.6075134277344,232.14285278320312)" id="node_4768" style="cursor: crosshair;"><circle class="node" r="4" style="fill: black;"></circle><rect class="node" y="-4px" x="-4px" width="0px" height="0px" style="stroke-width: 2px; stroke: black;"></rect><text x="13" dy=".3em" dx="-.3em" text-anchor="start" font-size="14px" style="fill-opacity: 1; font-family: sans-serif; font-weight: normal; fill: black;">4_WP_128737711_1_subtilisin__Bacillus_subtilis</text><text class="triangleText" dy=".35em" font-size="14px" style="fill-opacity: 1e-06; font-family: sans-serif;"></text><path d="M0,0L0,0L0,0L0,0"></path></g><g class="node" transform="translate(252.1236572265625,196.42857360839844)" id="node_6826" style="cursor: crosshair;"><circle class="node" r="4" style="fill: black;"></circle><rect class="node" y="-4px" x="-4px" width="0px" height="0px" style="stroke-width: 2px; stroke: black;"></rect><text x="13" dy=".3em" dx="-.3em" text-anchor="start" font-size="14px" style="fill-opacity: 1; font-family: sans-serif; font-weight: normal; fill: black;">1_KNGNLBHA_Subtilisin</text><text class="triangleText" dy=".35em" font-size="14px" style="fill-opacity: 1e-06; font-family: sans-serif;"></text><path d="M0,0L0,0L0,0L0,0"></path></g><g class="node" transform="translate(252.1236572265625,214.2857208251953)" id="node_6987" style="cursor: crosshair;"><circle class="node" r="4" style="fill: black;"></circle><rect class="node" y="-4px" x="-4px" width="0px" height="0px" style="stroke-width: 2px; stroke: black;"></rect><text x="-13" dy="-.3em" dx=".3em" text-anchor="end" font-size="14px" style="fill-opacity: 1; font-family: sans-serif; font-weight: normal;"></text><text class="triangleText" dy=".35em" font-size="14px" style="fill-opacity: 1e-06; font-family: sans-serif;" x="0"></text><path d="M0,0L0,0L0,0L0,0"></path></g><g class="node" transform="translate(252.1236572265625,241.07142639160156)" id="node_1283" style="cursor: crosshair;"><circle class="node" r="4" style="fill: black;"></circle><rect class="node" y="-4px" x="-4px" width="0px" height="0px" style="stroke-width: 2px; stroke: black;"></rect><text x="-13" dy="-.3em" dx=".3em" text-anchor="end" font-size="14px" style="fill-opacity: 1; font-family: sans-serif; font-weight: normal;"></text><text class="triangleText" dy=".35em" font-size="14px" style="fill-opacity: 1e-06; font-family: sans-serif;" x="0"></text><path d="M0,0L0,0L0,0L0,0"></path></g><g class="node" transform="translate(269.8656005859375,160.7142791748047)" id="node_7389" style="cursor: crosshair;"><circle class="node" r="4" style="fill: black;"></circle><rect class="node" y="-4px" x="-4px" width="0px" height="0px" style="stroke-width: 2px; stroke: black;"></rect><text x="13" dy=".3em" dx="-.3em" text-anchor="start" font-size="14px" style="fill-opacity: 1; font-family: sans-serif; font-weight: normal; fill: black;">6_WP_133953559_1_subtilisin__Bacillus_subtilis</text><text class="triangleText" dy=".35em" font-size="14px" style="fill-opacity: 1e-06; font-family: sans-serif;"></text><path d="M0,0L0,0L0,0L0,0"></path></g><g class="node" transform="translate(271.3440856933594,125)" id="node_2726" style="cursor: crosshair;"><circle class="node" r="4" style="fill: black;"></circle><rect class="node" y="-4px" x="-4px" width="0px" height="0px" style="stroke-width: 2px; stroke: black;"></rect><text x="13" dy=".3em" dx="-.3em" text-anchor="start" font-size="14px" style="fill-opacity: 1; font-family: sans-serif; font-weight: normal; fill: black;">5_MCB7161176_1_subtilisin__Bacillus_subtilis</text><text class="triangleText" dy=".35em" font-size="14px" style="fill-opacity: 1e-06; font-family: sans-serif;"></text><path d="M0,0L0,0L0,0L0,0"></path></g><g class="node" transform="translate(234.3817138671875,142.85714721679688)" id="node_2157" style="cursor: crosshair;"><circle class="node" r="4" style="fill: black;"></circle><rect class="node" y="-4px" x="-4px" width="0px" height="0px" style="stroke-width: 2px; stroke: black;"></rect><text x="-13" dy="-.3em" dx=".3em" text-anchor="end" font-size="14px" style="fill-opacity: 1; font-family: sans-serif; font-weight: normal;"></text><text class="triangleText" dy=".35em" font-size="14px" style="fill-opacity: 1e-06; font-family: sans-serif;" x="0"></text><path d="M0,0L0,0L0,0L0,0"></path></g><g class="node" transform="translate(225.51075744628906,191.9642791748047)" id="node_1703" style="cursor: crosshair;"><circle class="node" r="4" style="fill: black;"></circle><rect class="node" y="-4px" x="-4px" width="0px" height="0px" style="stroke-width: 2px; stroke: black;"></rect><text x="-13" dy="-.3em" dx=".3em" text-anchor="end" font-size="14px" style="fill-opacity: 1; font-family: sans-serif; font-weight: normal;"></text><text class="triangleText" dy=".35em" font-size="14px" style="fill-opacity: 1e-06; font-family: sans-serif;" x="0"></text><path d="M0,0L0,0L0,0L0,0"></path></g><g class="node" transform="translate(198.89784240722656,247.76785278320312)" id="node_5759" style="cursor: crosshair;"><circle class="node" r="4" style="fill: black;"></circle><rect class="node" y="-4px" x="-4px" width="0px" height="0px" style="stroke-width: 2px; stroke: black;"></rect><text x="-13" dy="-.3em" dx=".3em" text-anchor="end" font-size="14px" style="fill-opacity: 1; font-family: sans-serif; font-weight: normal;"></text><text class="triangleText" dy=".35em" font-size="14px" style="fill-opacity: 1e-06; font-family: sans-serif;" x="0"></text><path d="M0,0L0,0L0,0L0,0"></path></g><g class="node" transform="translate(173.76344299316406,331.47320556640625)" id="node_7628" style="cursor: crosshair;"><circle class="node" r="4" style="fill: black;"></circle><rect class="node" y="-4px" x="-4px" width="0px" height="0px" style="stroke-width: 2px; stroke: black;"></rect><text x="-13" dy="-.3em" dx=".3em" text-anchor="end" font-size="14px" style="fill-opacity: 1; font-family: sans-serif; font-weight: normal;"></text><text class="triangleText" dy=".35em" font-size="14px" style="fill-opacity: 1e-06; font-family: sans-serif;" x="0"></text><path d="M0,0L0,0L0,0L0,0"></path></g><g class="node" transform="translate(156.02149963378906,89.28571319580078)" id="node_9081" style="cursor: crosshair;"><circle class="node" r="4" style="fill: black;"></circle><rect class="node" y="-4px" x="-4px" width="0px" height="0px" style="stroke-width: 2px; stroke: black;"></rect><text x="13" dy=".3em" dx="-.3em" text-anchor="start" font-size="14px" style="fill-opacity: 1; font-family: sans-serif; font-weight: normal; fill: black;">3_WP_017695350_1_subtilisin__Bacillus_subtilis</text><text class="triangleText" dy=".35em" font-size="14px" style="fill-opacity: 1e-06; font-family: sans-serif;"></text><path d="M0,0L0,0L0,0L0,0"></path></g><g class="node" transform="translate(153.06451416015625,210.3794708251953)" id="node_3481" style="cursor: crosshair;"><circle class="node" r="4" style="fill: black;"></circle><rect class="node" y="-4px" x="-4px" width="0px" height="0px" style="stroke-width: 2px; stroke: black;"></rect><text x="-13" dy="-.3em" dx=".3em" text-anchor="end" font-size="14px" style="fill-opacity: 1; font-family: sans-serif; font-weight: normal;"></text><text class="triangleText" dy=".35em" font-size="14px" style="fill-opacity: 1e-06; font-family: sans-serif;" x="0"></text><path d="M0,0L0,0L0,0L0,0"></path></g><g class="node" transform="translate(287.6075134277344,53.57143020629883)" id="node_5664" style="cursor: crosshair;"><circle class="node" r="4" style="fill: black;"></circle><rect class="node" y="-4px" x="-4px" width="0px" height="0px" style="stroke-width: 2px; stroke: black;"></rect><text x="13" dy=".3em" dx="-.3em" text-anchor="start" font-size="14px" style="fill-opacity: 1; font-family: sans-serif; font-weight: normal; fill: black;">14_WP_168747344_1_subtilisin__Bacillus_mojavensis</text><text class="triangleText" dy=".35em" font-size="14px" style="fill-opacity: 1e-06; font-family: sans-serif;"></text><path d="M0,0L0,0L0,0L0,0"></path></g><g class="node" transform="translate(250.64515686035156,17.85714340209961)" id="node_5173" style="cursor: crosshair;"><circle class="node" r="4" style="fill: black;"></circle><rect class="node" y="-4px" x="-4px" width="0px" height="0px" style="stroke-width: 2px; stroke: black;"></rect><text x="13" dy=".3em" dx="-.3em" text-anchor="start" font-size="14px" style="fill-opacity: 1; font-family: sans-serif; font-weight: normal; fill: black;">11_WP_010333625_1_subtilisin__Bacillus_mojavensis</text><text class="triangleText" dy=".35em" font-size="14px" style="fill-opacity: 1e-06; font-family: sans-serif;"></text><path d="M0,0L0,0L0,0L0,0"></path></g><g class="node" transform="translate(250.64515686035156,35.71428680419922)" id="node_8025" style="cursor: crosshair;"><circle class="node" r="4" style="fill: black;"></circle><rect class="node" y="-4px" x="-4px" width="0px" height="0px" style="stroke-width: 2px; stroke: black;"></rect><text x="-13" dy="-.3em" dx=".3em" text-anchor="end" font-size="14px" style="fill-opacity: 1; font-family: sans-serif; font-weight: normal;"></text><text class="triangleText" dy=".35em" font-size="14px" style="fill-opacity: 1e-06; font-family: sans-serif;" x="0"></text><path d="M0,0L0,0L0,0L0,0"></path></g><g class="node" transform="translate(20,123.046875)" id="node_3734" style="cursor: crosshair;"><circle class="node" r="4" style="fill: black;"></circle><rect class="node" y="-4px" x="-4px" width="0px" height="0px" style="stroke-width: 2px; stroke: black;"></rect><text x="-13" dy="-.3em" dx=".3em" text-anchor="end" font-size="14px" style="fill-opacity: 1; font-family: sans-serif; font-weight: normal;"></text><text class="triangleText" dy=".35em" font-size="14px" style="fill-opacity: 1e-06; font-family: sans-serif;" x="0"></text><path d="M0,0L0,0L0,0L0,0"></path></g></g></svg>